Coordinates
version=1
nRows=29
nColumns=24
inDegrees=yes

Units are S.I. units (second, meters, Newtons, ...)
Angles are in degrees.

endheader
time	pelvis_tilt	pelvis_list	pelvis_rotation	pelvis_tx	pelvis_ty	pelvis_tz	hip_flexion_r	hip_adduction_r	hip_rotation_r	knee_angle_r	ankle_angle_r	subtalar_angle_r	mtp_angle_r	hip_flexion_l	hip_adduction_l	hip_rotation_l	knee_angle_l	ankle_angle_l	subtalar_angle_l	mtp_angle_l	lumbar_extension	lumbar_bending	lumbar_rotation
      0.89200000	     -1.10342808	     -3.10117159	     -1.79497987	     -0.17593344	      1.05449528	      0.31622405	     -6.26731567	      7.55823761	      1.55639175	    -15.26408363	      9.30344525	    -12.61259469	      3.08841150	     20.94074464	     -1.04371431	     -3.87707157	      2.72104114	      1.43066568	      1.66261032	      5.61536456	      1.86046749	      7.63883819	      1.91202558
      0.89616667	     -1.05463203	     -3.10025713	     -1.90020610	     -0.16979850	      1.05415040	      0.31626731	     -6.33466222	      7.49548925	      1.48562157	    -15.96375577	      9.24931581	    -12.56381116	      3.09147830	     20.84720414	     -1.04849349	     -3.72349785	      2.38416978	      1.40549318	      1.70278053	      5.60981795	      1.92102259	      7.60570838	      1.92125800
      0.90033333	     -1.00457400	     -3.12204010	     -1.81488471	     -0.16369743	      1.05373366	      0.31575480	     -6.36344165	      7.43998360	      1.05103022	    -16.71385131	      9.23136853	    -11.77239709	      3.13759313	     20.77879082	     -0.98212548	     -3.21265169	      1.97751796	      1.40730642	      1.61434813	      5.55500205	      1.87652481	      7.71363214	      1.96392002
      0.90450000	     -0.93659209	     -3.12291066	     -1.90813070	     -0.15759366	      1.05344716	      0.31580840	     -6.39365282	      7.37267344	      0.96004690	    -17.51755487	      9.15611882	    -11.72609230	      3.14305298	     20.66609737	     -0.98783133	     -3.08628236	      1.55079680	      1.35647321	      1.61720259	      5.55100212	      1.92105499	      7.64289842	      1.97778864
      0.90866667	     -0.87579734	     -3.10503087	     -1.85581770	     -0.15145410	      1.05310715	      0.31517226	     -6.36186526	      7.23834343	      0.45329111	    -18.41295036	      9.20525575	    -10.69747242	      3.26967585	     20.54899152	     -0.87104261	     -2.54246353	      1.13590304	      1.12663114	      0.93816715	      5.48111722	      1.79915046	      7.64782053	      2.05290321
      0.91283333	     -0.80579436	     -3.08457294	     -1.89305314	     -0.14531332	      1.05284897	      0.31493191	     -6.32433594	      7.11714183	      0.17824614	    -19.32690736	      8.88802579	    -10.30833786	      3.34708224	     20.41507312	     -0.81185063	     -2.29472111	      0.69767581	      0.89873601	      0.71626665	      5.45249339	      1.77359254	      7.65738176	      2.08187044
      0.91700000	     -0.71676859	     -3.04061591	     -1.91287628	     -0.13912840	      1.05263787	      0.31457307	     -6.27192098	      6.95313503	     -0.17577071	    -20.31320128	      8.67596951	     -9.73064531	      3.47037661	     20.24209773	     -0.71153889	     -2.00016634	      0.27135783	      0.63263613	      0.28496913	      5.42778169	      1.72206845	      7.61013894	      2.13594211
      0.92116667	     -0.61144110	     -3.01498241	     -1.99540404	     -0.13301257	      1.05249152	      0.31457487	     -6.20689755	      6.83045482	     -0.35502067	    -21.36551947	      8.54883391	     -9.69324387	      3.48216286	     20.05263824	     -0.68188398	     -1.92173426	     -0.18345772	      0.55888510	      0.27223417	      5.42719385	      1.77160988	      7.53043429	      2.15065292
      0.92533333	     -0.54723624	     -2.90756918	     -1.98429285	     -0.12671270	      1.05229779	      0.31383863	     -6.04882289	      6.54538162	     -0.90298844	    -22.49300227	      8.27557550	     -8.66101407	      3.74838750	     19.86352314	     -0.46549584	     -1.50468563	     -0.55066575	     -0.02229996	     -0.86768043	      5.41644182	      1.66341418	      7.47352569	      2.26419586
      0.92950000	     -0.49309205	     -2.82271217	     -2.05802700	     -0.12051941	      1.05212801	      0.31365017	     -5.84631131	      6.32363184	     -1.20789261	    -23.68440921	      7.95602637	     -8.51961238	      3.78538151	     19.70603220	     -0.35146484	     -1.46188560	     -0.98371435	     -0.17373180	     -0.91735145	      5.41772445	      1.57409842	      7.36776577	      2.27421623
      0.93366667	     -0.36718910	     -2.72213573	     -2.07778714	     -0.11433195	      1.05207519	      0.31309945	     -5.68580091	      6.04466907	     -1.61800573	    -24.91378848	      7.45345961	     -7.69375564	      4.13646192	     19.43438071	     -0.17224045	     -1.10006092	     -1.32242034	     -0.82791203	     -2.02391880	      5.43920493	      1.57463196	      7.28433998	      2.37281153
      0.93783333	     -0.28826525	     -2.61481956	     -2.15366933	     -0.10815843	      1.05199579	      0.31284049	     -5.43577217	      5.77351603	     -1.91380589	    -26.20851236	      6.81812564	     -7.29770344	      4.29890560	     19.22317803	     -0.03069596	     -1.00349723	     -1.70504911	     -1.15108212	     -2.27309209	      5.45609008	      1.51738501	      7.14178231	      2.40070886
      0.94200000	     -0.20252857	     -2.51218953	     -2.16884267	     -0.10208795	      1.05190587	      0.31254622	     -5.15004688	      5.51298152	     -2.28144404	    -27.57296205	      6.28118210	     -6.94813255	      4.41844095	     19.04180942	      0.12203169	     -0.99217588	     -2.14287716	     -1.45080411	     -2.58975488	      5.46799409	      1.41584724	      6.92373436	      2.43939000
      0.94616667	     -0.11447879	     -2.35271647	     -2.25083420	     -0.09589994	      1.05188442	      0.31217477	     -4.83342145	      5.15372374	     -2.59858233	    -28.98722631	      5.54349960	     -6.45059856	      4.58120740	     18.80040000	      0.32815547	     -0.88354868	     -2.48747468	     -1.87412782	     -3.10400668	      5.48456863	      1.36564508	      6.73421540	      2.48197936
      0.95033333	     -0.02820725	     -2.18430216	     -2.32103626	     -0.08977922	      1.05186799	      0.31177398	     -4.47256178	      4.77767528	     -2.91626039	    -30.46902113	      4.83957804	     -6.00721339	      4.77025817	     18.56619345	      0.54451459	     -0.74246066	     -2.83517665	     -2.29112615	     -3.71053398	      5.50601280	      1.30576820	      6.52916016	      2.52792367
      0.95450000	      0.05681517	     -1.99483884	     -2.39916355	     -0.08365837	      1.05187681	      0.31135500	     -4.07747834	      4.36963241	     -3.20772401	    -31.99530145	      4.08319508	     -5.60685109	      4.97088277	     18.32770239	      0.78242309	     -0.59810960	     -3.17260880	     -2.68402484	     -4.30605996	      5.53048011	      1.26436659	      6.31572989	      2.56863953
      0.95866667	      0.14044360	     -1.77393374	     -2.45179227	     -0.07749334	      1.05188936	      0.31064141	     -3.64818003	      3.89142205	     -3.56146913	    -33.58092480	      3.42734745	     -5.24963777	      5.60534972	     18.06274779	      1.08648148	     -0.21679194	     -3.44443686	     -3.35375030	     -5.67094312	      5.61875353	      1.32550524	      6.22639317	      2.63121485
      0.96283333	      0.24500451	     -1.57283539	     -2.53060334	     -0.07154333	      1.05193752	      0.31035772	     -3.20054586	      3.47639566	     -3.76928590	    -35.19525695	      2.59340221	     -4.93310033	      5.76193715	     17.83437547	      1.31629208	     -0.18609210	     -3.83998874	     -3.50108648	     -5.76870854	      5.64485187	      1.18089903	      5.88293795	      2.64483873
      0.96700000	      0.33938990	     -1.33467689	     -2.62533924	     -0.06552283	      1.05200833	      0.31001011	     -2.71815137	      3.00492669	     -3.95500594	    -36.82401994	      1.58667375	     -4.60659240	      5.95341743	     17.60461796	      1.59028219	     -0.17670063	     -4.21423157	     -3.72691508	     -6.09031075	      5.67228346	      1.12048484	      5.59469169	      2.65432716
      0.97116667	      0.42645604	     -1.09298635	     -2.71072744	     -0.05957320	      1.05206217	      0.30959610	     -2.19547123	      2.52367036	     -4.12809076	    -38.49355157	      0.64553740	     -4.36140325	      6.14268747	     17.38843312	      1.87153368	     -0.11576136	     -4.59161682	     -3.94564390	     -6.45867593	      5.69829739	      1.05277886	      5.29422207	      2.66486743
      0.97533333	      0.51338528	     -0.83409050	     -2.79335870	     -0.05365558	      1.05213520	      0.30919394	     -1.64662878	      2.02632244	     -4.26349622	    -40.17966006	     -0.29362195	     -4.15326165	      6.31282686	     17.17444448	      2.16880038	     -0.05395481	     -4.96735289	     -4.12989522	     -6.80872052	      5.72134205	      0.97772780	      4.98478325	      2.67067170
      0.97950000	      0.59788755	     -0.55574285	     -2.88401594	     -0.04775503	      1.05221669	      0.30875898	     -1.07277729	      1.50348028	     -4.35965277	    -41.86687364	     -1.33096397	     -3.96633301	      6.50601798	     16.96360392	      2.48754602	     -0.01561419	     -5.34622218	     -4.30787428	     -7.22392503	      5.74675350	      0.94639883	      4.66447790	      2.67260323
      0.98366667	      0.68287976	     -0.27805134	     -2.95405110	     -0.04192179	      1.05230052	      0.30832204	     -0.47791708	      0.98838541	     -4.43625203	    -43.56766524	     -2.23017960	     -3.84682284	      6.66662010	     16.76021791	      2.80569095	      0.03506289	     -5.73031902	     -4.43348224	     -7.52629851	      5.76887726	      0.87077974	      4.35085505	      2.66749904
      0.98783333	      0.75830338	      0.03469512	     -3.03378318	     -0.03592081	      1.05242117	      0.30785959	      0.12586926	      0.43164478	     -4.48133260	    -45.21339327	     -3.39132218	     -3.77000978	      6.92970459	     16.55493015	      3.16549653	     -0.05343513	     -6.10637591	     -4.57459572	     -8.02370328	      5.80355332	      0.98241178	      4.05801375	      2.65175253
      0.99200000	      0.81210403	      0.32451333	     -3.10351630	     -0.03015924	      1.05248595	      0.30741941	      0.79034939	     -0.08210783	     -4.47495376	    -46.88709083	     -4.31373243	     -3.76489354	      7.19027234	     16.39019842	      3.49265429	     -0.04949393	     -6.49909065	     -4.65403608	     -8.32983148	      5.84123446	      0.95176862	      3.70285175	      2.63163801
      0.99616667	      0.74402960	      0.60483333	     -3.15212374	     -0.02443567	      1.05236443	      0.30695071	      1.60729495	     -0.56867500	     -4.45472214	    -48.55602651	     -5.23970316	     -4.05653858	      7.99823210	     16.36256194	      3.80577680	      0.00324382	     -6.89248976	     -4.86506006	     -8.72472888	      5.95923333	      1.08293246	      3.44371912	      2.56870101
      1.00033333	      0.87869304	      0.91095684	     -3.21763254	     -0.01871580	      1.05259171	      0.30658524	      2.19886814	     -1.07979126	     -4.36335904	    -50.16322759	     -5.95264276	     -3.90285603	      8.17859777	     16.10301306	      4.14569938	     -0.09994330	     -7.27275246	     -4.68570434	     -8.73351805	      5.99398251	      0.95942076	      3.01660598	      2.54906506
      1.00450000	      0.99141882	      1.18573021	     -3.24150383	     -0.01320569	      1.05276321	      0.30615914	      2.83541397	     -1.54109376	     -4.26505040	    -51.75860756	     -6.47614859	     -3.90301881	      8.26756840	     15.87878585	      4.45761287	     -0.06643363	     -7.65779919	     -4.62835096	     -8.68394753	      6.01355077	      0.77549986	      2.71114656	      2.51919288
      1.00866667	      1.03038883	      1.49959869	     -3.37259131	     -0.00746425	      1.05291026	      0.30595835	      3.56177085	     -2.01898793	     -4.04231434	    -53.28124516	     -7.31242649	     -4.11498030	      8.50837756	     15.70859475	      4.77559209	     -0.35708355	     -8.00979441	     -4.46326490	     -8.69406348	      6.06230236	      0.87620531	      2.36295138	      2.44421006
